<svg version="1.2" xmlns="http://www.w3.org/2000/svg" viewBox="0 0 512 512" width="512" height="512"><style>.a{fill:#7289da}.b{fill:#fff}</style><path class="a" d="m24.5 2.2c-2.8 1.2-7.3 3.8-10 5.8-2.8 2-6.5 5.9-8.3 8.6-1.8 2.7-3.9 7.2-4.8 9.9-1.2 4.3-1.4 35.2-1.4 230.3 0 214.2 0.1 225.4 1.8 229.9 1 2.7 3.2 6.8 4.8 9.3 1.7 2.5 5.3 6.1 8 8.1 2.7 1.9 7.4 4.5 10.4 5.7l5.5 2.2h451c8.5-3.3 13.3-6 16-8 2.8-2 6.5-5.9 8.2-8.6 1.8-2.7 4-7.2 4.8-9.9 1.3-4.4 1.5-31.2 1.5-230.5v-225.5c-3.5-8.5-5.9-12.7-7.5-14.9-1.7-2.1-5-5.3-7.5-7-2.5-1.8-7-4.2-10-5.4l-5.5-2.2-452 0.2z"/><path class="b" d="m346 392l-21-25c41-11 57-39 57-39-52 49-194 51-249 0 0 0 14 26 56 39l-23 25c-70-1-97-48-97-48 0-104 46-187 46-187 47-33 90-33 90-33l3 4c-58 16-83 42-83 42 68-46 208-42 263 0 1-1-33-28-86-42l5-4c0 0 43 0 90 33 0 0 46 83 46 187 0 0-27 47-97 48z"/><path fill-rule="evenodd" class="a" d="m196 314c-18.2 0-33-15.6-33-35 0-19.4 14.8-35 33-35 18.2 0 33 15.6 33 35 0 19.4-14.8 35-33 35z"/><path fill-rule="evenodd" class="a" d="m312 314c-18.2 0-33-15.6-33-35 0-19.4 14.8-35 33-35 18.2 0 33 15.6 33 35 0 19.4-14.8 35-33 35z"/></svg>