<svg version="1.2" xmlns="http://www.w3.org/2000/svg" viewBox="0 0 512 512" width="512" height="512"><style>.a{fill:#fa5c5c}.b{fill:#fff}</style><path class="a" d="m23.5 2.5c-3.3 1.4-8 4.2-10.5 6.3-2.5 2.1-6 6.3-7.8 9.3-1.8 3-3.7 7-4.2 8.9-0.6 2.2-0.9 87.5-0.7 231l0.2 227.5c5.4 9.9 9 14.6 11.5 16.8 2.5 2.2 7 5.2 10 6.6l5.5 2.6h457c8.9-4.3 13.7-7.6 16.3-10.3 2.7-2.6 6.2-7.2 7.8-10.2l2.9-5.5v-459c-4.5-8.5-8-13.1-10.7-15.8-2.6-2.6-7.4-5.9-10.6-7.5l-5.7-2.7-455-0.5z"/><path class="b" d="m141.7 118.8c-13.5 8-40 38.5-40.3 46.6v13.2c0 16.8 15.7 31.6 29.9 31.6 17.2 0 31.4-14.2 31.4-31 0 16.8 13.8 31 30.9 31 17.2 0 30.5-14.2 30.5-31 0 16.8 14.6 31 31.6 31h0.3c17.2 0 31.8-14.2 31.8-31 0 16.8 13.3 31 30.5 31 17.1 0 30.8-14.2 30.8-31 0 16.8 14.3 31 31.4 31 14.2 0 30-14.7 30-31.6v-13.2c-0.3-8-26.9-38.6-40.4-46.6-41.9-1.4-70.9-1.7-114.2-1.7-43.3 0.1-102.3 0.7-114.2 1.7zm82.1 83.4c-1.7 2.9-3.7 5.4-6 7.7-6.5 6.3-15.3 10.2-25 10.2 0 0 0 0-0.1 0-9.8 0-18.7-4-25.1-10.3-2.4-2.3-4.1-4.7-5.8-7.6-1.6 2.9-3.8 5.3-6.2 7.6-6.4 6.3-15.3 10.2-25.1 10.2 0 0 0 0 0 0-1.2 0-2.4-0.3-3.4-0.6-1.4 14.3-1.9 28-2.2 37.9v0.1c0 5.1 0 9.2 0 15 0.2 30-3 97.4 13.2 113.9 25.2 5.9 71.5 8.6 117.9 8.6 46.4 0 92.6-2.7 117.7-8.6 16.3-16.5 13-83.9 13.4-113.9 0-5.8-0.1-9.9-0.1-15v-0.1c-0.3-9.9-0.8-23.6-2.2-37.9-1 0.3-2.3 0.6-3.4 0.6-9.8 0-18.7-3.9-25.1-10.2-2.4-2.3-4.6-4.8-6.2-7.6-1.6 2.8-3.5 5.3-5.8 7.6-6.4 6.3-15.2 10.2-25.1 10.2 0 0 0 0 0 0-9.8 0-18.6-3.9-25-10.2-2.3-2.3-4.3-4.8-5.9-7.6l-0.1-0.2c-1.7 2.9-3.7 5.5-6 7.7-6.4 6.4-15.3 10.3-25.1 10.3 0 0 0 0-0.1 0-0.3 0-0.7 0-1 0-0.3 0-0.6 0-1 0 0 0 0 0-0.1 0-9.8 0-18.6-3.9-25.1-10.3-2.3-2.2-4.3-4.8-5.8-7.6zm-25.9 33.4c10.3 0 19.4 0 30.6 12.3 8.9-0.9 18.1-1.4 27.3-1.4 9.2 0 18.5 0.4 27.3 1.4 11.4-12.3 20.5-12.3 30.7-12.3 4.8 0 24.1 0 37.5 37.8l14.5 51.8c10.7 38.5-3.5 39.5-21.1 39.5-26-1-40.5-19.9-40.5-38.9-14.5 2.3-31.4 3.6-48.4 3.6-16.8 0-33.7-1.3-48.2-3.6 0 19-14.5 37.9-40.7 39-17.5-0.1-31.7-1-21-39.6l14.5-51.8c13.4-37.8 32.7-37.8 37.5-37.8zm57.9 29.6c0 0.1-27.4 25.4-32.4 34.3l18-0.7v15.7c0 0.8 7.2 0.5 14.4 0.1 7.3 0.4 14.5 0.7 14.5-0.1v-15.7l18.1 0.7c-5-8.9-32.6-34.2-32.6-34.3z"/></svg>