<svg version="1.2" xmlns="http://www.w3.org/2000/svg" viewBox="0 0 512 512" width="512" height="512"><style>.a{fill:#0177b5}.b{fill:#fff}</style><path class="a" d="m474.1 0h-436.3c-20.8 0-37.8 16.5-37.8 36.9v438.1c0 20.4 17 37 37.8 37h436.3c20.9 0 37.9-16.6 37.9-37v-438.1c0-20.4-17-36.9-37.9-36.9z"/><path class="b" d="m75.9 192h76.1v244.3h-76.1zm38-121.6c24.3 0 44 19.7 44 44 0 24.2-19.7 44-44 44-5.8 0-11.5-1.1-16.8-3.4-5.4-2.2-10.2-5.4-14.3-9.5-4.1-4.1-7.3-8.9-9.6-14.3-2.2-5.3-3.3-11-3.3-16.8 0-5.8 1.1-11.5 3.3-16.9 2.2-5.3 5.5-10.2 9.6-14.3 4.1-4 8.9-7.3 14.3-9.5 5.3-2.2 11-3.3 16.8-3.3zm85.6 121.6h72.8v33.4h1c10.2-19.2 35-39.5 72-39.5 76.9 0 91.1 50.6 91.1 116.4v134h-75.9v-118.8c0-28.4-0.5-64.8-39.4-64.8-39.5 0-45.6 30.8-45.6 62.7v120.8h-75.9c0 0 0-244.3-0.1-244.2z"/></svg>